<svg xmlns="http://www.w3.org/2000/svg" viewBox="0 0 60 30"><rect width="60" height="30" fill="#012169"/><g fill="#fff"><polygon points="0,0 25,12 0,24"/><polygon points="60,0 35,12 60,24"/><polygon points="0,30 25,18 0,6"/><polygon points="60,30 35,18 60,6"/></g><g fill="#C8102E"><polygon points="0,0 22,12 0,24"/><polygon points="60,0 38,12 60,24"/><polygon points="0,30 22,18 0,6"/><polygon points="60,30 38,18 60,6"/></g><rect x="25" width="10" height="30" fill="#fff"/><rect y="10" width="60" height="10" fill="#fff"/><rect x="27" width="6" height="30" fill="#C8102E"/><rect y="12" width="60" height="6" fill="#C8102E"/></svg>